<?xml version="1.0" standalone="no"?>
<svg style="width: 390px; height: 390px; justify-content: center; align-self: center; transform: scale(1);" viewBox="-350 -150 1500 1500" width="300" height="300" xmlns="http://www.w3.org/2000/svg"><rect x="-350" y="-150" width="100%" height="100%" fill="#FFD55A" rx="30"></rect><g transform="rotate(0 408.5066374540329 623.2386207580566)"><g id="body_Hoodie" data-name="body/Hoodie" transform="translate(0 459)"><path id="_Skin" data-name="âœ‹ Skin" d="M778.244,749.543c19.326-.933,11.553-34.738,10.166-47.153-15.3-45.344-11.7-94.816-17.722-142.344-3.749-44.368-8.566-88.6-12.618-132.932-7.958-89.994-65.1-273.2-130.32-302.661-8.215-36.046-42.146-69.694-85.076-69.694C513.394,20.1,478.151-4.293,432.948.632c-18.68.85-36.8,20.662-54.695,24.488-10.022,1.382-98.962-2.175-116.778,8.406-12.41,6.372-23.613,18.147-19.964,33.138,5.822,18.162-12.271-1.49-50.014,17.895-76.963,46.223-30.973,108.06-28.935,109.976C114.534,261.358,72.555,315.57,53.132,397.247,40.544,457.886,41.961,520.485,31.414,581.435,27.69,602.569,21.977,622.98,15.8,643.5c-6.7,26.859-9.958,93.8-13.651,94.4-6.727,1.671,3.888,15.483,11.016,15.494,197.624,32.781,398.362,1.358,597.048-3.776C666.2,747.675,722.254,747.226,778.244,749.543Z" transform="translate(12.504 -34)" fill="#d08b5b"></path><path id="_Jacket" data-name="ðŸ§¥ Jacket" d="M378.5,64.457c0,21.032,73.03,99.184,98.234,94.028q25.2-5.156,76.16-67.249V64.457L545.558,35.3c41.56,1.465,74.161,34.409,82.191,69.643,64.563,29.169,121.219,209.019,130.067,299.934l.253,2.728c4.052,44.334,8.869,88.564,12.618,132.932,6.018,47.528,2.421,97,17.722,142.344l.091.77c1.6,12.984,8.683,45.469-10.257,46.383-55.99-2.317-112.043-1.868-168.036.079-198.686,5.134-399.424,36.557-597.048,3.776C6.032,733.882-4.583,720.07,2.144,718.4,5.837,717.8,9.1,650.857,15.8,624l1.272-4.245c5.689-19.1,10.88-38.147,14.347-57.823,10.547-60.95,9.13-123.549,21.718-184.188,19.423-81.677,61.4-135.889,109.43-202.712-2.038-1.916-48.028-63.752,28.935-109.976,37.743-19.385,55.836.267,50.014-17.9-3.649-14.991,7.554-26.766,19.964-33.138C279.291,3.44,368.231,7,378.253,5.615A53.6,53.6,0,0,0,392.27,0l-.814,2.71Q378.5,46.129,378.5,64.457Z" transform="translate(12.504 -14.495)" fill="#9fd8e5"></path><path id="_Ink" data-name="ðŸ– Ink" d="M489.923,756.62a2.312,2.312,0,0,1-2.344-2.262c-2.9-42.141-4.793-84.108-6.62-124.693l0-.039c-1.3-28.844-2.125-58.437-2.525-90.472-.544,0-1.1.009-1.633.014h-.079c-.79.007-1.608.015-2.412.018-21.611.094-43.954.192-65.926.192-18.81,0-35.54-.071-51.146-.218l.01.009a.977.977,0,0,1,.162.247c2.792,6.59,3.1,14.986,3.024,22.33a110.352,110.352,0,0,1-3.073,24.292,127.572,127.572,0,0,1-6.955,20.859,156.4,156.4,0,0,1-10.19,19.6,215.18,215.18,0,0,1-26.985,34.9l-.65.689c-.692.732-1.414,1.479-2.113,2.2l-.033.034c-4.11,4.253-8.361,8.65-10.81,14.018-2.341,5.129-3.468,10.961-4.559,16.6-.276,1.426-.56,2.9-.857,4.317l-.17.8-5.678,26.226c-.385,1.778-.708,3.712-1.05,5.759-1.253,7.5-2.673,16-7.86,20.73a10.5,10.5,0,0,1-7.1,2.936c-4.313,0-8.276-2.934-10.1-7.476-1.923-4.79-.6-9.924.684-14.889l0-.007c.218-.845.443-1.718.644-2.56l10.491-44.1c1.768-7.374,3.659-14.52,7.328-20.891,3.8-6.592,9.257-11.292,15.036-16.268l.063-.054a191.116,191.116,0,0,0,15.448-14.892,182.332,182.332,0,0,0,13.638-16.562,159.839,159.839,0,0,0,20.559-37.558,135.328,135.328,0,0,0,5.995-20.622c.652-3.2.992-6.515,1.32-9.716a92.537,92.537,0,0,1,1.463-10.373,1.28,1.28,0,0,1,.922-.9.564.564,0,0,1,.059-.49.51.51,0,0,1,.406-.226l31.918-2.051c27.254-1.758,56.425-3.683,85.089-5.852l5.009-.362c-.356-36.713-.137-76.214.668-120.758.25-13.856.411-27.947.566-41.573v-.057c.258-22.66.526-46.092,1.211-69.132.563-18.876,1.79-37.532,3.033-54.882,1.049-14.631,2.617-29.42,4.135-43.723.421-3.967.856-8.069,1.279-12.157a.7.7,0,0,1,1.406,0l1.395,13.469c1.544,14.958,3.294,32.344,4.517,49.395,1.482,20.683,2.472,41.5,2.941,61.869,1.724,74.713,2,150.6,2.13,215.867,9.478-.657,19.3-1.313,29.2-1.951,5.856-.378,12.154-.772,19.82-1.238l16.847-1.021,6.936-.426c.65-.04,1.326-.1,1.98-.156h.008c1.253-.109,2.548-.221,3.8-.221,2.368,0,5.361.348,7.5,3.059,1.545,1.956,1.817,4.068.747,5.794-2.635,4.251-6.555,4.391-11.093,4.553l-.054,0-.908.034c-4.6.186-9.267.371-13.872.548-8.77.341-19.16.729-29.729,1.026-10.465.294-20.961.532-31.2.706-.105,30.326-1.347,60.377-2.722,91.057l-.615,13.655c-1.857,41.238-3.587,75.855-5.993,110.761A2.313,2.313,0,0,1,489.923,756.62Zm-299.2-3.946a6.222,6.222,0,0,1-5.53-3.115l.7.462a1.127,1.127,0,0,0,.213.12c.013-.032-.709-.582-2.271-1.73l-1.683-2.177a13.62,13.62,0,0,1-2.317-5.83,33.884,33.884,0,0,1,.138-7.83c.084-.9.171-1.819.229-2.7l3.864-59.612c1.11-17.117,2.3-34.433,3.456-51.178,1.982-28.784,4.031-58.547,5.7-87.862,1.094-19.208,2.13-41.938,1.51-64.889-.352-13.043-.814-23.049-1.5-32.442-.864-11.865-2.078-22.413-3.71-32.247a2.022,2.022,0,0,1,.442-1.667,1.936,1.936,0,0,1,1.45-.693,1.805,1.805,0,0,1,1.536.915,139.638,139.638,0,0,1,8.924,16.412,148.043,148.043,0,0,1,6.59,17.1,186.683,186.683,0,0,1,7.392,36.247,296.546,296.546,0,0,1,1.623,33.354c-.029,12.042-.612,24.174-1.118,33.4-1.286,23.482-2.785,46.965-4.337,70.961l-2.349,36.263-5.9,90.909a27.791,27.791,0,0,1-1.807,9.024,12.44,12.44,0,0,1-5.69,6.414,13.383,13.383,0,0,1-2.309,1.583A6.928,6.928,0,0,1,190.724,752.674ZM15.274,751.2a9.532,9.532,0,0,1-5.922-2.065A11.114,11.114,0,0,1,5.7,743.866a106.971,106.971,0,0,1-4.75-23.005,204.335,204.335,0,0,1-.93-23.554C.156,683.232,1.74,668.36,5,650.506c3.8-20.789,9.094-41.623,14.215-61.771l0-.008.009-.033c2.363-9.3,4.806-18.908,7.069-28.388,3.14-13.156,5.81-26.551,7.935-39.812,2.119-13.223,3.771-26.781,4.911-40.3.584-6.92,1.119-13.962,1.636-20.773l0-.057c1.584-20.857,3.222-42.425,6.483-63.47a287.058,287.058,0,0,1,9.275-40.442A277.026,277.026,0,0,1,71.7,316.836c12.087-25.065,27.314-48.08,39.23-65.33,9.029-13.069,18.328-25.521,27.641-37.009,9.934-12.254,20.24-23.854,30.633-34.479a11.889,11.889,0,0,1-5.738-1.844,17.369,17.369,0,0,1-6.275-7.219,29.569,29.569,0,0,1-2.693-9.269,127,127,0,0,1-.942-22.069,105.4,105.4,0,0,1,3.261-21.826A81.276,81.276,0,0,1,172.75,86.531a70.167,70.167,0,0,1,12.766-11.956,64.411,64.411,0,0,1,15.644-8.314,56.982,56.982,0,0,1,18.222-3.055c.544-.014,1.123-.02,1.771-.02.956,0,1.916.014,2.844.028H224c.941.014,1.913.028,2.888.028a33.842,33.842,0,0,0,10.431-1.277c3.747-1.232,6.931-3.886,9.733-8.116A70.9,70.9,0,0,0,252.9,41.966c.233-.56.453-1.09.677-1.623l.156-.37a74.515,74.515,0,0,1,7.576-14.165,44.2,44.2,0,0,1,11.37-11.278C283.26,7.323,296.633,4.361,307.1,2.586l.754-.127A174.615,174.615,0,0,1,336.325,0C356.316,0,374,3.979,388.875,11.827a.22.22,0,0,1,.105.256.224.224,0,0,1-.213.18h-.011l-7.941-.317c-9.588-.376-17.63-.626-25.718-.626-9.124,0-17.2.335-24.683,1.024A172.62,172.62,0,0,0,305.9,16.285l-2.531.61a108.353,108.353,0,0,0-13.331,3.964A42.947,42.947,0,0,0,278.02,27.6a33.7,33.7,0,0,0-7.889,9.886,107.757,107.757,0,0,0-5.31,11.628l-.309.755-.437,1.054a62.661,62.661,0,0,1-5.916,11.251,33.445,33.445,0,0,1-8.883,9.035,32.164,32.164,0,0,1-12.269,4.823,97.534,97.534,0,0,1-13.18,1.273h-.01c-2.008.1-4.085.209-6.107.371a44.5,44.5,0,0,0-13.552,3.3,49.937,49.937,0,0,0-11.843,7.04,57.439,57.439,0,0,0-9.727,9.917,61.72,61.72,0,0,0-7.2,11.934c-4.256,9.278-6.639,20.33-7.082,32.848a103.729,103.729,0,0,0,.527,17.251,27.156,27.156,0,0,0,1.445,4.787c.5,1.288,1.453,3.447,2.128,3.447l.041,0a5.944,5.944,0,0,1,.814-.056,5.1,5.1,0,0,1,4.82,3.049c6.4-6.185,12.9-12.094,19.323-17.561a371.648,371.648,0,0,1,53.146-37.842c13.111-7.667,28.722-16.39,45.088-22.953l-.177,0a7.449,7.449,0,0,0-3.469.836.518.518,0,0,1-.731-.261.493.493,0,0,1,.107-.547A16.617,16.617,0,0,1,297,88.9a15.877,15.877,0,0,1,6.136-1.181,22.249,22.249,0,0,1,5.009.612c1.367-.435,2.616-.817,3.817-1.166a.607.607,0,0,1,.169-.025.521.521,0,0,1,.5.394.577.577,0,0,1-.233.66l-1.462.933c6.453,2.162,12.756,6.376,17.821,9.762l.094.063c13.155,8.792,25.075,19.535,36.6,29.923l.053.047c1.159,1.045,2.358,2.126,3.539,3.186l2.353,2.107c10.895,9.729,22.8,19.879,36,28.2a127.213,127.213,0,0,0,21.345,11.155c1.452.572,3.1,1.091,4.836,1.641,5.935,1.875,12.661,4,14.979,9.23A6.136,6.136,0,0,1,450,189.261a7.017,7.017,0,0,1-3.011,4.723c-1.851,2.037-4.546,3.07-8.011,3.07-4.5,0-9.412-1.65-14.047-3.433a149.034,149.034,0,0,1-21.866-10.5c-12.1-7.107-24.438-16.392-37.706-28.385-8.073-7.3-15.974-15.027-23.614-22.5-3.867-3.783-7.863-7.692-11.852-11.517-2.482-2.379-4.977-4.826-7.39-7.192-2.569-2.519-5.225-5.123-7.876-7.658l-2.579-2.442c-.392-.367-.807-.765-1.247-1.185a51.6,51.6,0,0,0-9.1-7.421c-2.885,1.721-5.823,3.436-8.664,5.094-4.595,2.682-9.342,5.453-13.941,8.292-9.319,5.753-19.274,12.432-30.435,20.419a465.837,465.837,0,0,0-54.1,45.461c-7.551,7.373-15.06,15.237-22.316,23.373-7,7.849-13.971,16.181-20.719,24.766a626.729,626.729,0,0,0-37.115,52.868l-1.745,2.777c-7.655,12.23-13.6,22.367-18.693,31.9A287.072,287.072,0,0,0,78.51,343.316a248.175,248.175,0,0,0-11.089,38.9,376.979,376.979,0,0,0-5.773,40.067c-1.161,12.282-1.981,24.795-2.775,36.9-.934,14.244-1.9,28.972-3.426,43.411-1.353,12.8-3.38,26.112-6.2,40.7-2.3,11.922-5.127,24.7-8.891,40.211l-1.547,6.339q-.464,1.891-.928,3.782l-.057.232,0,.008c-5.463,22.241-11.111,45.24-13.96,68.377A284.264,284.264,0,0,0,21.5,701.8c.18,10.858,1.636,21.722,3.044,32.229l.008.059c.312,2.326.634,4.732.938,7.1a7.991,7.991,0,0,1-2.466,6.586,11.483,11.483,0,0,1-6.272,3.313A10.029,10.029,0,0,1,15.274,751.2Zm786.81-13.4a11.4,11.4,0,0,1-7.438-2.652,10.743,10.743,0,0,1-3.64-7.939,544.545,544.545,0,0,0-5.659-56.154c-2.744-18.573-6.19-37.36-9.523-55.528l0-.016c-2.674-14.578-5.439-29.652-7.834-44.567-2.9-18.067-5.2-37.938-7.035-60.747-1.635-20.335-2.756-41.077-3.839-61.137v-.012c-1.385-25.637-2.817-52.148-5.338-78.074-1.356-13.952-2.911-26.628-4.753-38.754-2.067-13.608-4.44-26.175-7.253-38.42a405.144,405.144,0,0,0-15.774-52.45,352.635,352.635,0,0,0-23.22-49.58c-4.684-8.227-9.545-15.98-14.449-23.041A233.159,233.159,0,0,0,669.592,147.3c-8.481-9.588-19.908-21.97-33.1-32.7a7.152,7.152,0,0,1-5.125,2,9.377,9.377,0,0,1-5.036-1.507,8.411,8.411,0,0,1-3.4-4.231,28.3,28.3,0,0,1-1.2-7.172,40.085,40.085,0,0,0-.663-5.267,61.757,61.757,0,0,0-3.47-11.026A72.449,72.449,0,0,0,605.043,67.86a78.919,78.919,0,0,0-8.885-8.493,84.036,84.036,0,0,0-10.068-7.041c-4.458-2.66-9.269-4.185-13.922-5.66-2.819-.894-5.735-1.818-8.569-2.99a.307.307,0,0,1-.2-.288.276.276,0,0,1,.2-.254,24.569,24.569,0,0,1,8.043-1.232c6.269,0,12.989,1.833,18.143,3.43A61.1,61.1,0,0,1,602.478,51a78.362,78.362,0,0,1,11.315,8.109,72.837,72.837,0,0,1,10.055,10.522,71.943,71.943,0,0,1,7.75,12.32l.412.84a82.282,82.282,0,0,1,5.442,13.738c1.548,5.55,1.884,10.373,1,14.336-.057.254-.123.5-.2.73a186.541,186.541,0,0,1,23.133,13.467,159.012,159.012,0,0,1,20.77,16.958,228.6,228.6,0,0,1,20.919,23.4,259.671,259.671,0,0,1,17.715,25.917,290.361,290.361,0,0,1,14.493,27.453c4.194,9.076,8.085,18.692,11.564,28.581,3.3,9.368,6.331,19.29,9.021,29.49,2.523,9.568,4.832,19.722,6.862,30.18,3.6,18.524,6.471,38.658,8.791,61.552,2.151,21.235,3.568,42.195,4.779,61.681l1.263,20.677c1.532,24.864,2.979,45.747,5.062,66.843,2.431,24.619,5.463,46.333,9.271,66.381l.61,3.18c1.873,9.662,3.952,19.508,5.962,29.031l0,.016c3.8,18.012,7.733,36.637,10.514,55.091,1.5,9.94,2.55,19.023,3.215,27.769a268.448,268.448,0,0,1,.744,27.944,10.593,10.593,0,0,1-3.5,7.948A11.156,11.156,0,0,1,802.084,737.794Zm-123.566-8.3a8.133,8.133,0,0,1-6.106-2.665c-5.644-6.087-6.045-15.942-6.4-24.636v-.011c-.1-2.458-.194-4.779-.4-6.949-.771-8.238-1.659-16.577-2.638-24.786l-.5-4.125c-.188-1.52-.373-3.071-.552-4.571a219.291,219.291,0,0,0-3.7-23.611A39.732,39.732,0,0,0,646.809,618c-1.718-1.708-3.483-3.41-5.19-5.055l-.02-.019c-4.2-4.048-8.539-8.232-12.45-12.768A177.138,177.138,0,0,1,613.3,578.555a145.638,145.638,0,0,1-10.291-20.575l-.494-1.174c-.514-1.226-1.081-2.5-1.681-3.855-2.77-6.24-5.907-13.308-5.723-19.524a.428.428,0,0,1,.721-.3,29.183,29.183,0,0,1,4.968,6.824c.544.921,1.107,1.874,1.688,2.768,2.44,3.751,5,7.415,7.608,10.89,5.374,7.161,11.457,14.006,17.23,20.336a246.38,246.38,0,0,0,17.627,17.433c2.32,2.078,4.776,4.109,7.151,6.074a128.566,128.566,0,0,1,13.017,11.81c11.8,12.875,14.343,30.192,16.806,46.94l.006.04c.167,1.136.34,2.31.512,3.458l.292,1.921c1.571,10.194,3.048,20.853,4.391,31.679v.011c.589,4.753,1.258,10.141,1.792,15.444l.159,1.634a37.57,37.57,0,0,1,.106,7.533,15.676,15.676,0,0,1-2.418,7.055,10.109,10.109,0,0,1-3.619,3.3A9.766,9.766,0,0,1,678.517,729.494Zm61.184-3.555a10.812,10.812,0,0,1-8.752-5.007c-3.3-4.727-3.553-12.216-3.779-18.824-.08-2.357-.156-4.584-.361-6.576-.941-9.136-1.771-16.542-2.61-23.307-1.9-15.348-4.453-30.816-6.922-45.244-2.9-16.96-6.578-34.087-10.131-50.65-3-14-6.106-28.466-8.732-42.77-6.824-37.163-10.076-67.933-10.232-96.836-.119-22.344,1.477-45.026,3.02-66.962v-.006c.726-10.317,1.477-20.986,2.039-31.5,1.64-30.635,3.6-63.3,5.984-99.875a.75.75,0,0,1,.77-.724.707.707,0,0,1,.73.724c.167,7.691.33,15.445.522,24.721.315,15.171.516,30.605.711,45.531v.015c.329,25.2.669,51.26,1.563,76.873,1,28.723,2.61,53.817,4.916,76.716,1.482,14.712,3.6,29.922,6.479,46.5,2.408,13.867,5.4,28.933,9.144,46.059,1.667,7.621,3.4,15.333,5.067,22.791l.016.072c1.769,7.895,3.6,16.058,5.352,24.1.615,2.819,1.249,5.692,1.862,8.47l.071.323c2.689,12.18,5.47,24.774,7.6,37.23,2.337,13.646,4.872,29.753,5.96,45.75l.129,2c.085,1.407.23,2.932.384,4.546a82.836,82.836,0,0,1,.547,10.776c-.158,4.1-.953,7.248-2.43,9.626C746.468,723.949,743.216,725.938,739.7,725.938ZM486.637,172.392a27.284,27.284,0,0,1-11.867-2.885,64.852,64.852,0,0,1-10.6-6.7l-.773-.582c-7.848-5.941-14.886-11.612-21.518-17.338a338.668,338.668,0,0,1-39.751-39.919,276.8,276.8,0,0,1-16.889-22.287,146.822,146.822,0,0,1-13.53-24.432,1.158,1.158,0,0,1,.095-1.1.99.99,0,0,1,.814-.466,1.033,1.033,0,0,1,.711.313c3.755,3.573,7.284,7.287,10.242,10.45.039-2.172-.107-4.389-.247-6.534a56.109,56.109,0,0,1-.09-9.328c.2-1.924.321-3.95.44-5.909.285-4.664.579-9.486,1.87-13.83a11.832,11.832,0,0,1,11.225-8.475,11.287,11.287,0,0,1,2.989.4,12.412,12.412,0,0,1,7.408,6.287,9.772,9.772,0,0,1,.661,7.928c-1.751,4.652-4.5,8.875-7.168,12.959l0,.006c-.985,1.511-2,3.073-2.958,4.636a62.452,62.452,0,0,1-5.835,7.661,65.748,65.748,0,0,0-5.522,7.165l3.666,3.952c1.624,1.745,3.552,3.806,5.534,5.858l6.395,6.624c4.746,4.905,9.866,10.146,15.144,15.237,9.052,8.731,16.169,15.337,23.076,21.42,8.562,7.54,16.555,14.032,24.438,19.846,3.51,2.588,7.6,5.579,11.757,8.332l1.492.988c2.434,1.594,5.29,3.3,8.371,3.3.252,0,.506-.012.755-.034,6.872-.631,13.219-6.987,18.319-12.1.9-.9,1.741-1.743,2.56-2.532l.29-.277a310.9,310.9,0,0,0,37.546-42.689c2.376-3.286,4.726-6.685,7.182-10.39-4.343-5.073-4.337-14.085-4.332-21.326v-.014c0-1.718,0-3.341-.054-4.794-.2-5.023-.223-10.128-.248-15.065l-.005-.993-.014-1.08-.008-.388c-.067-3.347-.13-6.508,2.035-9.254a.387.387,0,0,1,.314-.133.566.566,0,0,1,.255.06c2.835,1.485,3.855,3.869,5.036,6.63l.044.1q.131.305.265.616l.137.315c1.243,2.827,2.464,5.721,3.646,8.52l0,.011.041.1q.495,1.172.99,2.344c1.407,3.321,2.732,6.734,4.012,10.035l.607,1.564c.629,1.616,1.292,3.394,2.027,5.436.383,1.116.787,2.253,1.236,3.475l.1.089A10.377,10.377,0,0,1,570.4,75.7a7.256,7.256,0,0,1,3.726,4.729c1.329,4.774-1.228,8.707-3.7,12.51l-.366.563a314.442,314.442,0,0,1-35.638,45.528c-6.512,6.865-13.483,13.545-20.719,19.855l-1.261,1.092a75.241,75.241,0,0,1-10.264,7.669,32.476,32.476,0,0,1-11.894,4.471A24.615,24.615,0,0,1,486.637,172.392Z" transform="translate(2 -21.143)"></path></g><g transform="translate(225 0)"><g><g id="head_Afro" data-name="head/Afro"><path id="_Skin" data-name="âœ‹ Skin" d="M151.977.371C303.547-7.083,371.943,99.635,376.367,147.3c3.071,33.088-16.478,71.225-16.478,100.791,0,15.092,18.478,47.492,9.876,69.489-19.147,48.959-59.687,103.294-111.347,103.294S139.525,435.162,82.443,353.43c-5.356-7.669-73.1-51.254-79.681-92.671C-13.632,157.595,43.825,5.69,151.977.371Z" transform="translate(43.419 82.301)" fill="#d08b5b"></path><path id="_Ink" data-name="ðŸ– Ink" d="M331,502.27c-4.756,0-9.829-.283-15.966-.892a242.274,242.274,0,0,1-38.4-6.54l-2.017-.536c-5.2-1.394-10.663-2.99-15.183-5.8a18.047,18.047,0,0,1-5.865-5.88,23.842,23.842,0,0,1-2.955-7.8A5.9,5.9,0,0,1,251.729,470a4.8,4.8,0,0,1,3.717-1.828h.224c.135,0,.275,0,.417,0,.556,0,1.147-.021,1.859-.065l.575-.039h.029a.32.32,0,0,1,.1-.011c.176-.026.35-.065.519-.1.149-.034.318-.072.481-.1a18.3,18.3,0,0,1,3.026-.255,23.947,23.947,0,0,1,7.725,1.443l.449.152a178.476,178.476,0,0,0,18.27,5.441c6.2,1.412,12.77,2.61,19.53,3.559l.651.08.2.03.1.01a.121.121,0,0,1,.06.011l1.93.239c1.525.18,3.063.343,4.55.5h.01c2.781.278,5.607.5,8.4.66,1.62.091,3.261.137,4.876.137a87.17,87.17,0,0,0,32.858-6.471,99.205,99.205,0,0,0,28.163-17.543,116.962,116.962,0,0,0,35.272-57.072,120.2,120.2,0,0,0,3.867-24.742,181.879,181.879,0,0,0-.447-24.719,11.816,11.816,0,0,1-.66-3.99c0-.781.043-1.553.09-2.27-.862-8.438-2.082-17.023-3.261-25.326-1.05-7.391-2.135-15.034-2.969-22.565a423.394,423.394,0,0,1-2.8-56.3,234.271,234.271,0,0,1,2.5-27.689l.471-3.3a32.216,32.216,0,0,1-15.686-7.966,32.22,32.22,0,0,1-16.007,4.295,28.4,28.4,0,0,1-14.962-4.116,35.611,35.611,0,0,1-18.708,5.238,32.3,32.3,0,0,1-16.831-4.5,29.255,29.255,0,0,1-7.829,3.983,27.6,27.6,0,0,1-8.664,1.407,26.8,26.8,0,0,1-5.726-.619,25.636,25.636,0,0,1-10.06-4.768,29.239,29.239,0,0,1-5.061.45c-.475,0-.957-.013-1.43-.037l-.447.25a33,33,0,0,1-15.338,4.183c-.288,0-.58,0-.868-.015a38.428,38.428,0,0,1-12.569-2.545,35.691,35.691,0,0,1-14.011,4.992,32.4,32.4,0,0,1-4.039.252,30.961,30.961,0,0,1-17.318-5.112,43.963,43.963,0,0,1-21.742,5.657,45.235,45.235,0,0,1-15.161-2.6,34.081,34.081,0,0,1-9.87,10.55,22.107,22.107,0,0,1,.7,7.922,32.228,32.228,0,0,1-3.261,11.683A20.9,20.9,0,0,1,189,249.917a33.152,33.152,0,0,1-10.615,17.409,32.691,32.691,0,0,1-16.169,26.813,13.347,13.347,0,0,1-1.471.732,7.26,7.26,0,0,1-1.531,1.542,17.886,17.886,0,0,1-12.417,4.4,29.828,29.828,0,0,1-11.329-2.366l-.167.009h-.011c-.084.005-.179.011-.273.013s-.169,0-.254,0a6.42,6.42,0,0,1-5.527-2.6,25.939,25.939,0,0,0-3.379.391,47.01,47.01,0,0,0-12.371,4.171,27.793,27.793,0,0,0-6.317,4.419,26.508,26.508,0,0,0-4.56,5.66,36.373,36.373,0,0,0-4.622,14.28,38.953,38.953,0,0,0,1.5,16.953,32.921,32.921,0,0,0,3.633,7.623,31.308,31.308,0,0,0,5.659,6.533,29.516,29.516,0,0,0,7.277,4.64,34.607,34.607,0,0,0,8.252,2.54,23.713,23.713,0,0,0,4.125.3c.647,0,1.3-.013,1.934-.026h.033c.626-.013,1.274-.026,1.9-.026a17.629,17.629,0,0,1,5.081.588,9.185,9.185,0,0,1,4.416,2.893,4.181,4.181,0,0,1,1.049,3.971,9.127,9.127,0,0,1-8.15,6.79,226.442,226.442,0,0,0,18.37,19.74c1.386,1.3,2.806,2.62,4.179,3.894l.052.048a222.956,222.956,0,0,1,16.73,16.667,137.64,137.64,0,0,1,9.566,12.189,84.872,84.872,0,0,1,7.662,13.441c1.869,4.182,3.483,8.536,5.044,12.747l0,.008c.477,1.287.971,2.618,1.464,3.925l.376.975c.26.656.534,1.32.8,1.961a35.171,35.171,0,0,1,2.552,7.853,12.586,12.586,0,0,1,.009,3.978,11.748,11.748,0,0,1-1.5,4.074,9.966,9.966,0,0,1-2.966,3.074,7.433,7.433,0,0,1-4.069,1.379,5.169,5.169,0,0,1-.665-.042c-8.62-1.1-11.386-7.1-13.88-14.23-.845-2.422-1.616-4.912-2.362-7.32-.987-3.185-2.007-6.479-3.207-9.65-.366-.954-.783-1.957-1.276-3.067a16.193,16.193,0,0,1-4.348.585,19.293,19.293,0,0,1-10.229-3.082,35.261,35.261,0,0,1-14.178,3c-.193,0-.39,0-.586-.005a35.594,35.594,0,0,1-9.518-1.444,33.4,33.4,0,0,1-8.447-3.857l-.244-.064-.058-.015-.016,0c-.306-.08-.622-.163-.931-.251a28.212,28.212,0,0,1-10.123,1.881,25.211,25.211,0,0,1-14.345-4.316,26.354,26.354,0,0,1-5.9-5.524,25.841,25.841,0,0,1-3.762-6.69,25.51,25.51,0,0,1-8.792-1.7A21.841,21.841,0,0,1,72.6,422.9a23.809,23.809,0,0,1-4.713-6.623,25.051,25.051,0,0,1-2.256-7.625,25.937,25.937,0,0,1-7.445-2.68,24.491,24.491,0,0,1-6.416-5.077,22.63,22.63,0,0,1-3.835-5.915,25,25,0,0,1-1.938-6.768,26.778,26.778,0,0,1-8.763-4.358,22.821,22.821,0,0,1-6.36-7.319,22.058,22.058,0,0,1-2.565-8.247,22.534,22.534,0,0,1,.668-8.194l-.366-.528a24.151,24.151,0,0,1-8.239-6.762,18.621,18.621,0,0,1-3.742-10.179,19.652,19.652,0,0,1,.715-6.682,20.066,20.066,0,0,1,.549-7.117,30.5,30.5,0,0,1-5.48-7.232,31.8,31.8,0,0,1-3.168-8.461,30.766,30.766,0,0,1-.637-8.985,28.346,28.346,0,0,1,2.114-8.8,30.9,30.9,0,0,1-7.827-16.69,29.761,29.761,0,0,1,.15-9.249,26.813,26.813,0,0,1,3.138-8.73,26.7,26.7,0,0,1-4.822-8.751A27.879,27.879,0,0,1,.04,241.768,36.271,36.271,0,0,1,3.074,229.28,66.261,66.261,0,0,1,9.4,218.058a20.844,20.844,0,0,1-4.092-6.928,22.189,22.189,0,0,1-1.286-7.963,25.174,25.174,0,0,1,2.885-10.836,40.965,40.965,0,0,1,6.614-9.164,32.7,32.7,0,0,1-1.647-10.363,33.507,33.507,0,0,1,1.6-10.11A34.669,34.669,0,0,1,25.12,145.988a19.1,19.1,0,0,1-2.339-12.89,20.734,20.734,0,0,1,4.973-10.379,41.842,41.842,0,0,1,8.927-7.582,18.973,18.973,0,0,1,1.17-13.88,23.827,23.827,0,0,1,6.007-7.744,48.969,48.969,0,0,1,8.123-5.606,22.033,22.033,0,0,1,2.373-7.742,24.677,24.677,0,0,1,4.857-6.495A23,23,0,0,1,65.794,69.2a18.544,18.544,0,0,1,7.553-1.663,16.683,16.683,0,0,1,8.132,2.117,14.235,14.235,0,0,1-.393-6.869A17.361,17.361,0,0,1,83.695,56.4a20.842,20.842,0,0,1,6.135-6.064,18.982,18.982,0,0,1,8.11-2.951,30.533,30.533,0,0,1,4.861-9.1,33.745,33.745,0,0,1,7.457-7.069,34.271,34.271,0,0,1,19.359-6.208,30.261,30.261,0,0,1,7.132.844,30.489,30.489,0,0,1,11.231-9.329A32.386,32.386,0,0,1,162.1,13.277a31.1,31.1,0,0,1,10.855,1.932,48.307,48.307,0,0,1,14.332-7.593,49.731,49.731,0,0,1,15.542-2.442A58.381,58.381,0,0,1,221.25,8.258a22.915,22.915,0,0,1,9.383-6.268A32.672,32.672,0,0,1,241.977,0c.659,0,1.323.019,1.973.058,5.848.347,11.4,2.34,16.778,4.268,5.467,1.961,11.121,3.99,17.053,4.262.757.035,1.544.053,2.339.053A108.3,108.3,0,0,0,293.739,7.49l.026,0A108.1,108.1,0,0,1,307.32,6.34a43.948,43.948,0,0,1,7.02.528,37.064,37.064,0,0,1,10.98,3.563,28.07,28.07,0,0,1,8.94,7.087,41.286,41.286,0,0,1,11.365-1.59,42.5,42.5,0,0,1,9.772,1.146A43.858,43.858,0,0,1,380,32.988a25.537,25.537,0,0,1,3.9-.3,29.9,29.9,0,0,1,16.986,5.552A27.984,27.984,0,0,1,411.6,52.4a34.751,34.751,0,0,1,12.2,2.681,38.02,38.02,0,0,1,10.625,6.637A33.972,33.972,0,0,1,446.07,83.288a26.882,26.882,0,0,1,16.09,12.5c3.635,6.2,4.973,13.785,4.091,23.18a21.568,21.568,0,0,1,9.04,9,34.838,34.838,0,0,1,3.91,12.848,22.624,22.624,0,0,1,7.69,10.684,27.446,27.446,0,0,1,1.18,13.5,15.519,15.519,0,0,1,6.252,7.149,23.1,23.1,0,0,1,2.089,9.661c-.009,1.777-.155,3.508-.3,5.182-.344,4.066-.669,7.9.918,12.008a30.453,30.453,0,0,1,1.976,7.373,23.317,23.317,0,0,1-.355,7.558l-.112.529c-.184.836-.349,1.677-.506,2.57a15.72,15.72,0,0,1,3.7,4.863,24.1,24.1,0,0,1,2.439,10.973,32.309,32.309,0,0,1-2.133,11.047,22,22,0,0,1-.7,13.6,25.088,25.088,0,0,1,3.576,7.586,24.114,24.114,0,0,1,.808,8.527,26.294,26.294,0,0,1-8.093,16.78,28.4,28.4,0,0,1-1.587,13.472,30.41,30.41,0,0,1-7.436,11.483,23.644,23.644,0,0,1-2.807,16.074,22.127,22.127,0,0,1-8.157,8.207,26.4,26.4,0,0,1-1.294,9.121,29.216,29.216,0,0,1-6.807,11.335,25.058,25.058,0,0,1-.231,8.887,26.439,26.439,0,0,1-3.229,8.336,23.6,23.6,0,0,1-14.132,10.88,12.666,12.666,0,0,1-2.984.424,128.361,128.361,0,0,1-8.081,33.052,136.287,136.287,0,0,1-9.515,19.506,134.618,134.618,0,0,1-12.5,17.721,129.626,129.626,0,0,1-15.219,15.422,123.056,123.056,0,0,1-17.676,12.61,114.508,114.508,0,0,1-19.608,9.111,111.125,111.125,0,0,1-20.972,5.219A98.439,98.439,0,0,1,331,502.27ZM136.7,339.1a5.4,5.4,0,0,1-5.054-3.268,38.59,38.59,0,0,0-4.83-8.041c-.319.447-.6.908-.932,1.464l-.3.506-.057.1c-.2.338-.409.688-.582,1.044a7.222,7.222,0,0,1-.254.916c-.02.064-.033.106-.035.114a7.667,7.667,0,0,1-5.049,4.95,4.832,4.832,0,0,1-1.6.276,5.359,5.359,0,0,1-3.4-1.3,7.113,7.113,0,0,1-2.141-3.026,6.4,6.4,0,0,1,.948-6.04,12.661,12.661,0,0,1,5.073-4.03,11.432,11.432,0,0,0-10.34,3.62.546.546,0,0,1-.408.184.649.649,0,0,1-.632-.615,9.154,9.154,0,0,1,1.052-4.733,11.463,11.463,0,0,1,3.1-3.643,16.68,16.68,0,0,1,9.117-3.4c.314-.017.63-.026.939-.026A17.666,17.666,0,0,1,128,315.48a24.089,24.089,0,0,1,5.829,3.482,48.528,48.528,0,0,1,9.2,10.216,5.385,5.385,0,0,1,.489,5.807A8.057,8.057,0,0,1,136.7,339.1Z" transform="translate(-33 7.999)"></path></g></g><g transform="translate(159 186)"><g><path d="M161.26 3.75829C151.862 0.105287 135.062 -2.96371 127.162 5.02229C122.951 9.28029 125.484 15.1363 130.37 17.1713C133.516 18.4822 136.949 18.183 140.337 17.8877C141.669 17.7716 142.993 17.6562 144.29 17.6393C148.84 17.5813 153.361 18.1643 157.793 19.1723C161.357 19.9847 164.836 21.1098 168.293 22.2873L170.595 23.0773C171.32 23.3264 172.054 23.61 172.797 23.8967C175.616 24.9851 178.553 26.1192 181.532 25.5913C182.229 25.4673 182.565 24.7623 182.634 24.1453C183.089 20.0982 179.892 16.2352 177.024 13.4278L176.386 12.8144L175.972 12.4263C171.724 8.48129 166.624 5.84429 161.26 3.75829ZM33.6232 10.8211L35.7926 10.2262L38.0047 9.62924L39.5005 9.23374C49.7753 6.54436 61.1082 4.17756 71.2972 5.33309C75.0132 5.75509 78.0292 7.84609 78.5552 11.7391C78.9982 15.0241 76.8752 19.2621 73.2622 19.8461C61.2952 21.7821 49.0442 21.1541 37.0222 23.1501C31.0352 24.1431 25.0942 25.3761 19.1302 26.4871C14.5952 27.3331 9.90917 27.6301 5.33517 28.3141L6.38617 28.4601C6.75417 28.5101 6.66217 29.1291 6.29917 29.1041C4.79154 28.9536 3.28162 28.9302 1.7694 29.0359L1.12117 29.0891C0.134167 29.2281 -0.447833 28.0501 0.432167 27.4521C6.00517 23.6711 10.7342 19.5731 16.9742 16.7861C22.3712 14.3761 27.9262 12.3891 33.6232 10.8211ZM166.634 45.6655C168.478 45.1131 169.779 45.3742 171.441 46.2403C172.719 46.9059 173.589 47.9568 174.088 49.1838C174.599 50.4395 174.707 51.8878 174.454 53.2296C173.406 58.8007 170.042 63.7442 165.503 66.9282C161.091 70.0227 155.589 71.452 150.049 70.2614C146.003 69.3919 140.008 65.5531 136.85 60.8711C135.504 58.8752 134.671 56.736 134.581 54.6232C134.495 52.6084 135.008 50.5771 137.676 47.8994C137.936 47.8184 138.208 47.7747 138.477 47.7747C139.138 47.7747 139.821 48.0516 140.274 48.4513C141.469 49.502 142.312 50.8319 143.178 52.2626L143.41 52.6451C143.799 53.2818 144.2 53.9109 144.69 54.476C146.449 56.5028 149.003 58.2218 151.683 58.6693C154.167 59.0845 156.407 58.3485 158.181 56.9599C160.257 55.3353 161.713 52.8432 162.253 50.1809C162.472 49.1021 163.036 48.1297 163.818 47.3478C164.607 46.5588 165.615 45.9718 166.634 45.6655ZM49.1162 69.4299C47.1005 71.4882 44.4385 72.6496 41.0316 71.9587C38.3694 71.4193 33.3005 68.7424 29.2512 64.6199C26.481 61.7996 24.1647 58.2755 23.535 54.193C23.3888 53.2449 22.8856 52.6371 22.225 52.2543C21.7033 51.952 21.0154 51.8002 20.2661 51.876C19.6299 51.9404 18.9544 52.1708 18.4324 52.4762C17.4395 53.0572 17.0334 53.8821 16.9509 54.498C16.1543 60.4416 18.4501 66.3391 22.0288 71.3116C26.8584 78.0223 33.951 82.9399 38.1196 84.0909C45.2534 86.0617 52.7703 84.4928 58.3124 79.5277C62.7443 75.5578 65.0159 70.3856 67.1236 65.0671L67.53 64.0361C68.0041 62.8293 68.4745 61.6313 68.9729 60.4461C69.9719 58.0711 69.652 56.0181 68.6834 54.418C67.6103 52.6454 65.6296 51.3976 63.4246 51.0143C61.3865 50.6601 59.2055 51.0476 57.4838 52.2925C56.0293 53.3441 54.8564 55.0104 54.4397 57.4743C53.762 61.4809 52.1899 66.0779 49.4178 69.111L49.1162 69.4299ZM129.748 108.039C137.872 96.6602 126.366 85.9571 118.814 81.367C116.836 79.9471 118.406 75.2433 122.634 75.9703C161.031 82.5673 141.136 148.708 92.1122 112.413C86.2756 107.704 93.3436 97.3338 99.6344 101.366C99.9534 101.611 100.288 101.869 100.637 102.139C107.704 107.603 120.636 117.601 129.748 108.039ZM138.581 156.822C135.281 161.137 129.306 164.442 122.614 166.022C116.238 167.528 109.191 167.466 103.109 165.149L102.587 164.941C98.0396 163.053 93.6748 159.239 92.0173 155.26C91.3584 153.678 91.1354 152.069 91.5864 150.569C91.9921 149.219 92.9432 147.976 94.5273 146.909C95.0247 146.574 95.6918 146.55 96.3274 146.662C97.116 146.801 97.8933 147.17 98.3623 147.668C100.964 150.435 104.739 153.132 109.207 153.086C112.655 153.051 115.47 151.69 118.2 150.151L120.119 149.053C121.97 147.996 123.847 147.004 125.971 146.551C129.773 145.739 134.384 147.222 137.194 149.67C138.419 150.737 139.309 151.991 139.551 153.343C139.755 154.477 139.469 155.661 138.581 156.822Z" transform="translate(51.99983 63.00011)" fill="#000000" fill-rule="evenodd" stroke="none"></path></g></g><g transform="translate(123 338)"><g><path d="M139.816 13.717C129.739 8.099 118.659 0.831 106.945 0C99.8638 0.301 98.2868 8.676 103.541 12.571C112.734 17.702 123.938 19.63 133.062 25.271C142.406 30.48 152.448 34.35 161.965 39.125L162.042 39.1614C162.534 39.3518 163.134 38.7908 162.798 38.292L162.426 37.6664C156.692 28.0954 149.514 19.511 139.816 13.717ZM72.3164 13.8353C75.8244 12.5963 76.9034 8.3553 76.4764 5.6833C75.8314 1.6513 68.4234 -0.1757 64.9494 0.5823C46.0404 4.7043 -8.72363 30.5783 1.18937 36.7803L1.61737 36.9683C15.2644 30.1282 30.9104 25.4671 46.3249 21.1251L54.3496 18.8776C60.5403 17.1815 66.1532 16.0094 72.3164 13.8353Z" transform="translate(123 33.9998)" fill="#000000" fill-rule="evenodd" stroke="none"></path></g></g><g transform="translate(47 241)"><g><path d="M355.09 63.4319C352.262 71.1279 347.958 79.1399 342.695 85.6169C321.401 103.649 300.71 93.6649 290.204 69.2259C286.212 51.9549 296.811 33.3509 308.042 20.6459C324.262 4.38889 350.733 12.9209 358.191 32.2469C358.644 34.7509 358.918 37.2489 359.049 39.7389C358.894 47.8299 357.919 54.7449 355.09 62.4319M150.41 47.9109C178.462 14.5439 230.942 12.7599 229.603 64.1149C223.577 129.119 122.106 113.164 150.41 47.9109ZM363.913 20.0759C362.93 18.4109 361.839 16.7999 360.648 15.2589C360.208 14.9969 359.955 12.6729 358.337 12.5009C336.71 -11.3581 298.717 2.17889 284.989 25.9529C282.482 28.9589 280.437 32.4779 278.929 36.1959C265.403 33.7149 249.634 34.1969 237.054 39.3059C224.58 6.73389 186.815 3.82589 161.928 17.7429C146.449 25.3559 136.412 41.2989 121.358 50.0569C85.9688 52.6039 47.9878 44.6749 13.2378 53.5519C-14.1682 59.2499 8.74178 73.1269 13.3378 63.8659C46.1008 54.1859 84.9158 62.3659 118.933 60.1849C122.47 66.1679 129.253 71.0639 136.013 70.8549C143.314 135.576 237.698 124.844 240.954 67.3109C244.647 61.4719 249.24 55.8839 255.814 52.2459C258.331 51.7249 260.762 51.0479 262.984 49.9999C266.782 49.4639 272.634 51.0739 276.128 54.2359C288.097 126.052 357.052 117.688 369.375 54.7739C369.62 54.5239 370.305 53.5859 370.831 52.0809C375.049 46.5039 385.375 44.4309 383.725 35.0159C382.256 25.5989 370.364 25.7109 363.913 20.0759Z" transform="translate(11.99972 10.99992)" fill="#000000" stroke="none"></path></g></g></g></g></svg>